<?xml version="1.0" encoding="utf-8"?>
<!-- Generator: Adobe Illustrator 26.0.3, SVG Export Plug-In . SVG Version: 6.00 Build 0)  -->
<svg version="1.1" id="레이어_1" xmlns="http://www.w3.org/2000/svg" xmlns:xlink="http://www.w3.org/1999/xlink" x="0px"
	 y="0px" viewBox="0 0 66.75 94.2" style="enable-background:new 0 0 66.75 94.2;" xml:space="preserve">
<style type="text/css">
	.st0{fill:#1BA639;}
</style>
<g>
	<path class="st0" d="M20.04,0c-1.44-0.09-2.41,1.47-1.67,2.71c0.1,0.17,0.19,0.35,0.26,0.53c0.09,0.22,0.16,0.45,0.2,0.68
		c0.15,0.75,0.79,1.3,1.55,1.39l40.17,4.8c1.47,0.18,2.58,1.42,2.58,2.9v62.16c0,0.96,0.75,1.75,1.7,1.81h0
		c1.04,0.06,1.92-0.77,1.92-1.81V4.49c0-0.96-0.75-1.75-1.7-1.81L20.04,0z"/>
	<path class="st0" d="M16.38,5.56c0.43-0.71,0.32-1.18,0.2-1.48c-0.66-1.61-4.05-3.04-6.04-3.56c0,0,0,0-0.01,0
		c-0.41-0.11-0.84,0-1.15,0.29L2.56,7.28c-0.84,0.8-0.2,2.21,0.95,2.1C8.96,8.88,15.1,7.67,16.38,5.56z"/>
	<path class="st0" d="M2.41,84.61l49.44,9.54c1.83,0.35,3.53-1.05,3.53-2.91v-66c0-1.42-1.01-2.64-2.41-2.91L3.53,12.78
		C1.7,12.43,0,13.83,0,15.7v66C0,83.12,1.01,84.34,2.41,84.61z"/>
	<path class="st0" d="M7.29,11.16c-0.08,0.01-0.16,0.02-0.24,0.03l48.31,9.32c1.3,0.25,2.24,1.39,2.24,2.71v59.44
		c0,0.85,0.65,1.56,1.49,1.64h0c0.97,0.09,1.81-0.67,1.81-1.64v-5.93V13.86c0-0.84-0.63-1.54-1.46-1.64L18.68,7.35
		c-0.48-0.06-0.96,0.11-1.32,0.43C15.63,9.33,12.31,10.44,7.29,11.16z"/>
</g>
</svg>
