<?xml version="1.0" encoding="utf-8"?>
<!-- Generator: Adobe Illustrator 26.0.3, SVG Export Plug-In . SVG Version: 6.00 Build 0)  -->
<svg version="1.1" id="레이어_1" xmlns="http://www.w3.org/2000/svg" xmlns:xlink="http://www.w3.org/1999/xlink" x="0px"
	 y="0px" viewBox="0 0 37.37 37.77" style="enable-background:new 0 0 37.37 37.77;" xml:space="preserve" fill="#60B630">
<g>
	<g>
		<path class="st4" d="M31.68,30.75l-10.14,3.77c-1.08,0.4-2.22-0.4-2.22-1.54l0.02-16.78c0-0.69,0.43-1.3,1.07-1.54l10.14-3.77
			c1.08-0.4,2.22,0.4,2.22,1.54l-0.02,16.78C32.75,29.89,32.32,30.51,31.68,30.75z"/>
		<path class="st4" d="M5.69,30.75l10.14,3.77c1.08,0.4,2.22-0.4,2.22-1.54l-0.02-16.78c0-0.69-0.43-1.3-1.07-1.54L6.82,10.88
			c-1.08-0.4-2.22,0.4-2.22,1.54l0.02,16.78C4.62,29.89,5.05,30.51,5.69,30.75z"/>
	</g>
	<path class="st4" d="M18.21,13.66L6.83,9.42C5.68,8.99,5.69,7.36,6.85,6.94l11.44-4.11c0.29-0.11,0.61-0.1,0.9,0.01l11.38,4.24
		c1.15,0.43,1.14,2.06-0.01,2.47l-11.44,4.11C18.82,13.77,18.5,13.76,18.21,13.66z"/>
</g>
</svg>
