<?xml version="1.0" encoding="utf-8"?>
<!-- Generator: Adobe Illustrator 26.0.3, SVG Export Plug-In . SVG Version: 6.00 Build 0)  -->
<svg version="1.1" id="레이어_1" xmlns="http://www.w3.org/2000/svg" xmlns:xlink="http://www.w3.org/1999/xlink" x="0px"
	 y="0px" viewBox="0 0 37.37 37.77" style="enable-background:new 0 0 37.37 37.77;" xml:space="preserve" fill="#99C729">
<g>
	<g>
		<g>
			<path class="st4" d="M22.99,10.87h-8.61c-4.03,0-7.29,3.26-7.29,7.29c0,2.81,1.59,5.24,3.92,6.46l4.1,3.7
				c0.53,0.48,1.36,0,1.21-0.7l-0.46-2.17h7.13c4.03,0,7.29-3.27,7.29-7.29S27.02,10.87,22.99,10.87z M25.04,20.38
				c-0.53-1.48-9,1.52-12.71,0.46c-0.84-0.3-0.84-1.61,0-1.31c0.52,1.48,9-1.52,12.71-0.46C25.88,19.37,25.88,20.68,25.04,20.38z
				 M25.04,16.56c-0.53-1.48-9,1.52-12.71,0.46c-0.84-0.31-0.84-1.61,0-1.31c0.52,1.48,9-1.52,12.71-0.46
				C25.88,15.56,25.88,16.87,25.04,16.56z"/>
		</g>
	</g>
</g>
</svg>
