<?xml version="1.0" encoding="utf-8"?>
<!-- Generator: Adobe Illustrator 26.0.3, SVG Export Plug-In . SVG Version: 6.00 Build 0)  -->
<svg version="1.1" id="레이어_1" xmlns="http://www.w3.org/2000/svg" xmlns:xlink="http://www.w3.org/1999/xlink" x="0px"
	 y="0px" viewBox="0 0 37.37 37.77" style="enable-background:new 0 0 37.37 37.77;" xml:space="preserve">
<style type="text/css">
	.st0{fill:#FFFFFF;}
	.st1{fill:#FFFFFF;stroke:#9E9E9E;stroke-width:0.0788;stroke-miterlimit:10;}
	.st2{display:none;}
	.st3{display:inline;fill:#60B630;}
	.st4{fill:#60B630;}
	.st5{fill:none;}
</style>
<rect class="st0" width="37.37" height="37.37"/>
<g>
	<path class="st1" d="M172.72-686.88l-7.96-7.96l7.96-7.96c0.65-0.65,0.65-1.7,0-2.34l-0.96-0.96c-0.65-0.65-1.69-0.65-2.34,0
		l-7.96,7.96l-7.96-7.96c-0.65-0.65-1.7-0.65-2.34,0l-0.96,0.96c-0.65,0.65-0.65,1.69,0,2.34l7.96,7.96l-7.96,7.96
		c-0.65,0.65-0.65,1.7,0,2.34l0.96,0.96c0.65,0.65,1.7,0.65,2.34,0l7.96-7.96l7.96,7.96c0.65,0.65,1.7,0.65,2.34,0l0.96-0.96
		C173.37-685.18,173.37-686.23,172.72-686.88z"/>
</g>
<g class="st2">
	<path class="st3" d="M19.47,15.71c0-3.68,3.22-6.62,6.99-6.16c3.15,0.39,5.43,3.24,5.43,6.41l0,0.6c0,0.02,0.02,0.04,0.04,0.04
		h2.77c0.02,0,0.04-0.02,0.04-0.04v-0.49c0-4.85-3.65-9.1-8.49-9.41c-5.26-0.33-9.65,3.86-9.65,9.05v0.89h2.86V15.71z"/>
	<path class="st3" d="M19.17,19.56h-2.36H6.56H4.21h0c-0.87,0-1.58,0.63-1.58,1.4v8.78c0,0.77,0.71,1.4,1.58,1.4h14.97
		c0.87,0,1.58-0.63,1.58-1.4v-8.78C20.76,20.19,20.05,19.56,19.17,19.56L19.17,19.56z"/>
</g>
<path class="st4" d="M59.99-32.45l-0.3-0.1l0.28-0.15c2.87-1.55,4.66-4.48,4.66-7.67c0-4.83-4.05-8.76-9.02-8.76
	s-9.02,3.93-9.02,8.76c0,3.18,1.78,6.12,4.66,7.67l0.28,0.15l-0.3,0.1c-5.46,1.87-9.13,7-9.13,12.76v5.86h27.03v-6.21
	C69.12-25.64,65.45-30.62,59.99-32.45z M51.61-41.43c0-0.61,0.5-1.11,1.11-1.11s1.11,0.5,1.11,1.11s-0.5,1.11-1.11,1.11
	S51.61-40.82,51.61-41.43z M59.03-37.26c0,1.4-1.53,2.55-3.42,2.55c-1.89,0-3.42-1.14-3.42-2.55v-0.44c0-0.5,0.41-0.9,0.9-0.9h5.03
	c0.5,0,0.9,0.41,0.9,0.9V-37.26z M58.49-40.32c-0.61,0-1.11-0.5-1.11-1.11s0.5-1.11,1.11-1.11c0.61,0,1.11,0.5,1.11,1.11
	S59.11-40.32,58.49-40.32z"/>
<path class="st5" d="M-83.35-66.35c-3.55,2.33-4.54,7.11-2.21,10.66c2.33,3.55,7.11,4.55,10.66,2.21c3.55-2.33,4.54-7.11,2.21-10.66
	C-75.02-67.69-79.79-68.68-83.35-66.35z"/>
<g>
	<path class="st4" d="M16.45-39.28H-3.71c0.33,0.54,0.52,1.17,0.52,1.84v3.8h19.65c1.1,0,2-0.9,2-2v-1.64
		C18.45-38.38,17.56-39.28,16.45-39.28z"/>
	<path class="st4" d="M16.45-31.48H-3.2v3.59c0,0.76-0.24,1.46-0.65,2.04h20.3c1.1,0,2-0.9,2-2v-1.64
		C18.45-30.58,17.56-31.48,16.45-31.48z"/>
	<path class="st4" d="M16.45-23.8h-32.82c-1.1,0-2,0.9-2,2v1.64c0,1.1,0.89,2,2,2h32.82c1.1,0,2-0.9,2-2v-1.64
		C18.45-22.91,17.56-23.8,16.45-23.8z"/>
	<path class="st4" d="M16.37-16.09h-32.82c-1.1,0-2,0.89-2,2v1.64c0,1.1,0.89,2,2,2h32.82c1.1,0,2-0.9,2-2v-1.64
		C18.37-15.19,17.47-16.09,16.37-16.09z"/>
	<path class="st4" d="M-16.46-25.84h8.93c1.05,0,1.91-0.9,1.91-2.01v-9.41c0-1.79-2.05-2.69-3.25-1.42l-8.93,9.41
		C-19.01-28.01-18.16-25.84-16.46-25.84z"/>
</g>
<path class="st4" d="M-31.08,13.59c5.52-5.54,5.41-15.25-2.12-20.57c-2.76-1.95-6.26-2.68-9.57-1.99
	c-11.97,2.5-15.05,17.31-5.06,24.37c2.76,1.95,6.26,2.68,9.57,1.99c0.92-0.19,1.78-0.47,2.6-0.79l5.96,9.08
	c0.59,0.89,1.79,1.14,2.68,0.56l1.34-0.88c0.89-0.59,1.14-1.79,0.56-2.68L-31.08,13.59z M-36.28,10.65
	c-3.56,2.33-8.33,1.34-10.66-2.21c-2.33-3.55-1.34-8.33,2.21-10.66c3.55-2.33,8.33-1.34,10.66,2.21
	C-31.74,3.54-32.73,8.31-36.28,10.65z"/>
<g>
	<g>
		<path class="st4" d="M33.61,11.75c-0.35-1.13-0.79-2.05-1.32-2.76c-0.53-0.71-1.19-1.33-1.96-1.85c-0.78-0.52-1.51-0.91-2.2-1.19
			c-0.69-0.27-1.45-0.48-2.29-0.62c-0.84-0.14-1.5-0.23-1.96-0.25c-0.47-0.03-0.96-0.04-1.48-0.04h-7.76
			c-10.76,0-11.37,11.22-11.4,13.15v0.28v9.69c0,2.3,1.87,4.17,4.17,4.17H8.3c2,0,3.61-1.45,4.07-3.4c0.29-1.22,1.38-2.12,2.69-2.12
			h7.66c0.47,0,0.97-0.03,1.52-0.1c0.54-0.06,1.2-0.19,1.96-0.39c0.76-0.19,1.5-0.45,2.2-0.78c0.7-0.32,1.41-0.78,2.14-1.36
			c0.73-0.58,1.35-1.26,1.87-2.02c0.52-0.76,0.94-1.72,1.26-2.86c0.32-1.14,0.49-2.4,0.49-3.79C34.14,14.13,33.96,12.87,33.61,11.75
			z M15.85,13.14c0-0.92,0.74-1.66,1.66-1.66c0.92,0,1.66,0.74,1.66,1.66c0,0.92-0.74,1.66-1.66,1.66
			C16.59,14.8,15.85,14.06,15.85,13.14z M29.49,19.22c0,2.49-2.8,4.51-6.25,4.51c-3.45,0-6.25-2.02-6.25-4.51v-0.87
			c0-0.69,0.56-1.25,1.25-1.25h10c0.69,0,1.25,0.56,1.25,1.25V19.22z M28.98,14.8c-0.92,0-1.66-0.74-1.66-1.66
			c0-0.92,0.74-1.66,1.66-1.66c0.92,0,1.66,0.74,1.66,1.66C30.64,14.06,29.9,14.8,28.98,14.8z"/>
	</g>
</g>
<g>
	<g>
		<g>
			<g>
				<path class="st4" d="M100.1,24.46c-5.44,0-9.87-4.43-9.87-9.87c0-5.44,4.43-9.87,9.87-9.87c5.44,0,9.87,4.43,9.87,9.87
					C109.97,20.03,105.55,24.46,100.1,24.46z M100.1,5.23c-5.16,0-9.37,4.2-9.37,9.37s4.2,9.37,9.37,9.37s9.37-4.2,9.37-9.37
					S105.27,5.23,100.1,5.23z"/>
			</g>
		</g>
	</g>
	<g>
		<path class="st4" d="M105.4,13.68h-4.39V9.29c0-0.36-0.29-0.65-0.65-0.65h-0.53c-0.36,0-0.65,0.29-0.65,0.65v4.39h-4.39
			c-0.36,0-0.65,0.29-0.65,0.65v0.53c0,0.36,0.29,0.65,0.65,0.65h4.39v4.39c0,0.36,0.29,0.65,0.65,0.65h0.53
			c0.36,0,0.65-0.29,0.65-0.65V15.5h4.39c0.36,0,0.65-0.29,0.65-0.65v-0.53C106.05,13.97,105.76,13.68,105.4,13.68z"/>
		<path class="st4" d="M100.37,20.55h-0.53c-0.36,0-0.66-0.3-0.66-0.66v-4.37h-4.37c-0.36,0-0.66-0.3-0.66-0.66v-0.53
			c0-0.36,0.3-0.66,0.66-0.66h4.37V9.29c0-0.36,0.3-0.66,0.66-0.66h0.53c0.36,0,0.66,0.3,0.66,0.66v4.38h4.37
			c0.36,0,0.66,0.3,0.66,0.66v0.53c0,0.36-0.3,0.66-0.66,0.66h-4.37v4.37C101.03,20.26,100.73,20.55,100.37,20.55z M94.81,13.7
			c-0.35,0-0.63,0.28-0.63,0.63v0.53c0,0.35,0.28,0.63,0.63,0.63h4.41v4.41c0,0.35,0.28,0.63,0.63,0.63h0.53
			c0.35,0,0.63-0.28,0.63-0.63v-4.41h4.41c0.35,0,0.63-0.28,0.63-0.63v-0.53c0-0.35-0.28-0.63-0.63-0.63H101V9.29
			c0-0.35-0.28-0.63-0.63-0.63h-0.53c-0.35,0-0.63,0.28-0.63,0.63v4.41H94.81z"/>
	</g>
</g>
<g>
	<g>
		<path class="st4" d="M76.81,61.95l-5.35,1.99c-0.57,0.21-1.17-0.21-1.17-0.81l0.01-8.85c0-0.36,0.23-0.69,0.57-0.81l5.35-1.99
			c0.57-0.21,1.17,0.21,1.17,0.81l-0.01,8.85C77.37,61.5,77.15,61.82,76.81,61.95z"/>
		<path class="st4" d="M63.1,61.95l5.35,1.99c0.57,0.21,1.17-0.21,1.17-0.81l-0.01-8.85c0-0.36-0.23-0.69-0.57-0.81l-5.35-1.99
			c-0.57-0.21-1.17,0.21-1.17,0.81l0.01,8.85C62.54,61.5,62.76,61.82,63.1,61.95z"/>
	</g>
	<path class="st4" d="M69.71,52.93l-6-2.24c-0.61-0.23-0.6-1.08,0.01-1.3l6.03-2.17c0.15-0.06,0.32-0.05,0.48,0l6,2.24
		c0.61,0.23,0.6,1.08-0.01,1.3l-6.03,2.17C70.03,52.99,69.86,52.99,69.71,52.93z"/>
</g>
<g>
	<g>
		<g>
			<g>
				<g>
					<path class="st4" d="M119.85,77.45c-10.89,0-19.74-8.86-19.74-19.74c0-10.89,8.86-19.75,19.74-19.75
						c10.89,0,19.75,8.86,19.75,19.75C139.59,68.59,130.74,77.45,119.85,77.45z M119.85,42.46c-8.41,0-15.24,6.84-15.24,15.25
						c0,8.41,6.84,15.24,15.24,15.24c8.41,0,15.25-6.84,15.25-15.24C135.09,49.3,128.26,42.46,119.85,42.46z"/>
				</g>
			</g>
		</g>
	</g>
	<g>
		<g>
			<path class="st4" d="M112.26,60.75c-0.2,0.2-0.31,0.47-0.32,0.75l-0.03,3.04c-0.01,0.6,0.49,1.1,1.09,1.09l3.04-0.03
				c0.28,0,0.55-0.12,0.75-0.32l7.99-7.99l-4.59-4.5L112.26,60.75z"/>
		</g>
		
			<rect x="120.27" y="53.53" transform="matrix(-0.7071 -0.7071 0.7071 -0.7071 172.5649 179.6177)" class="st4" width="6.43" height="1.07"/>
		<path class="st4" d="M126.72,55.38c1.25-1.25,1.25-3.29,0-4.54c-1.25-1.25-3.29-1.25-4.54,0L126.72,55.38z"/>
	</g>
</g>
<g>
	<path class="st4" d="M130.81,23.14l-4.26-4.26l4.26-4.26c0.35-0.35,0.35-0.91,0-1.25l-0.51-0.51c-0.35-0.35-0.91-0.35-1.25,0
		l-4.26,4.26l-4.26-4.26c-0.35-0.35-0.91-0.35-1.25,0l-0.51,0.51c-0.35,0.35-0.35,0.91,0,1.25l4.26,4.26l-4.26,4.26
		c-0.35,0.35-0.35,0.91,0,1.25l0.51,0.51c0.35,0.35,0.91,0.35,1.25,0l4.26-4.26l4.26,4.26c0.35,0.35,0.91,0.35,1.25,0l0.51-0.51
		C131.16,24.05,131.16,23.49,130.81,23.14z"/>
</g>
<g>
	<g>
		<g>
			<g>
				<g>
					<path class="st4" d="M75.5,101.33c-8.84,0-16.04-7.2-16.04-16.04s7.2-16.04,16.04-16.04s16.04,7.19,16.04,16.04
						S84.34,101.33,75.5,101.33z M75.5,70.06c-8.4,0-15.23,6.83-15.23,15.23s6.83,15.23,15.23,15.23s15.23-6.83,15.23-15.23
						S83.89,70.06,75.5,70.06z"/>
				</g>
			</g>
		</g>
		<path class="st4" d="M84.11,83.81h-7.14v-7.14c0-0.58-0.47-1.05-1.05-1.05h-0.86c-0.58,0-1.05,0.47-1.05,1.05v7.14h-7.14
			c-0.58,0-1.05,0.47-1.05,1.05v0.86c0,0.58,0.47,1.05,1.05,1.05h7.14v7.14c0,0.58,0.47,1.05,1.05,1.05h0.86
			c0.58,0,1.05-0.47,1.05-1.05v-7.14h7.14c0.58,0,1.05-0.47,1.05-1.05v-0.86C85.16,84.28,84.69,83.81,84.11,83.81z"/>
	</g>
</g>
<g>
	<g>
		<g>
			<g>
				<g>
					<path class="st4" d="M-91.82,80.91c-9.49,0-17.21-7.85-17.21-17.51c0-9.66,7.72-17.51,17.21-17.51s17.21,7.85,17.21,17.51
						C-74.61,73.06-82.33,80.91-91.82,80.91z M-91.82,47.89c-8.39,0-15.21,6.96-15.21,15.51s6.83,15.51,15.21,15.51
						s15.21-6.96,15.21-15.51S-83.43,47.89-91.82,47.89z"/>
				</g>
			</g>
		</g>
	</g>
	<g>
		<g>
			<path class="st4" d="M-82.33,58.21c-2.05-3.15-6.07-3.9-8.97-1.68l-0.52,0.4l-0.52-0.4c-2.91-2.22-6.92-1.47-8.97,1.68
				c-2.05,3.15-1.35,7.5,1.55,9.71l7.94,6.06l7.94-6.06C-80.97,65.7-80.28,61.35-82.33,58.21z"/>
		</g>
	</g>
</g>
<g>
	<g>
		<circle class="st4" cx="-97.08" cy="197.89" r="1.96"/>
	</g>
	<g>
		<circle class="st4" cx="-91.82" cy="197.89" r="1.96"/>
	</g>
	<g>
		<circle class="st4" cx="-86.57" cy="197.89" r="1.96"/>
	</g>
</g>
<g>
	<g>
		<g>
			<g>
				<g>
					<g>
						<path class="st4" d="M-91.82,128.45c-9.49,0-17.21-7.85-17.21-17.51c0-9.65,7.72-17.51,17.21-17.51s17.21,7.85,17.21,17.51
							C-74.61,120.59-82.33,128.45-91.82,128.45z M-91.82,95.43c-8.39,0-15.21,6.96-15.21,15.51s6.83,15.51,15.21,15.51
							s15.21-6.96,15.21-15.51S-83.43,95.43-91.82,95.43z"/>
					</g>
				</g>
			</g>
		</g>
	</g>
	<g>
		<g>
			<path class="st4" d="M-87.52,102.92h-8.61c-4.03,0-7.29,3.26-7.29,7.29c0,2.81,1.59,5.24,3.92,6.46l4.1,3.7
				c0.53,0.48,1.36,0,1.21-0.7l-0.46-2.17h7.13c4.03,0,7.29-3.27,7.29-7.29S-83.49,102.92-87.52,102.92z M-85.47,112.43
				c-0.53-1.48-9,1.52-12.71,0.46c-0.84-0.3-0.84-1.61,0-1.31c0.52,1.48,9-1.52,12.71-0.46C-84.62,111.43-84.63,112.74-85.47,112.43
				z M-85.47,108.61c-0.53-1.48-9,1.52-12.71,0.46c-0.84-0.31-0.84-1.61,0-1.31c0.52,1.48,9-1.52,12.71-0.46
				C-84.62,107.61-84.63,108.92-85.47,108.61z"/>
		</g>
	</g>
</g>
<g>
	<g>
		<g>
			<g>
				<g>
					<g>
						<path class="st4" d="M-91.82,175.98c-9.49,0-17.21-7.85-17.21-17.51s7.72-17.51,17.21-17.51s17.21,7.85,17.21,17.51
							S-82.33,175.98-91.82,175.98z M-91.82,142.97c-8.39,0-15.21,6.96-15.21,15.51s6.83,15.51,15.21,15.51s15.21-6.96,15.21-15.51
							S-83.43,142.97-91.82,142.97z"/>
					</g>
				</g>
			</g>
		</g>
	</g>
	<g>
		<g>
			<path class="st4" d="M-94.41,153.96c0.48-0.48,0.97-0.97,1.46-1.46c0,1.34,0,2.68,0,4.02c0,0.32,0,0.63,0,0.95
				c0,0.61,0.52,1.12,1.12,1.12c0.61,0,1.12-0.51,1.12-1.12c0-1.66,0-3.31,0-4.97c0.48,0.49,0.97,0.97,1.46,1.46
				c0.42,0.42,1.18,0.45,1.59,0c0.41-0.45,0.44-1.15,0-1.59c-1.13-1.13-2.25-2.25-3.38-3.38c-0.09-0.09-0.2-0.15-0.31-0.2
				c-0.02-0.01-0.03-0.03-0.05-0.04c-0.02-0.01-0.05-0.01-0.07-0.01c-0.11-0.04-0.23-0.07-0.36-0.07c-0.13,0-0.26,0.03-0.38,0.08
				c-0.02,0.01-0.04,0-0.05,0.01c-0.04,0.02-0.06,0.04-0.1,0.06c-0.09,0.05-0.19,0.1-0.27,0.18c-1.13,1.12-2.25,2.25-3.38,3.38
				c-0.42,0.42-0.45,1.18,0,1.59C-95.55,154.38-94.85,154.41-94.41,153.96z"/>
		</g>
		<g>
			<path class="st4" d="M-86.11,156.79c0,2.16,0,4.32,0,6.48c-3.62,0-7.24,0-10.86,0c-0.19,0-0.38,0-0.57,0c0-2.16,0-4.32,0-6.48
				c0-1.45-2.25-1.45-2.25,0c0,2.53,0,5.07,0,7.6c0,0.61,0.52,1.12,1.12,1.12c4,0,7.99,0,11.99,0c0.57,0,1.13,0,1.7,0
				c0.61,0,1.12-0.52,1.12-1.12c0-2.53,0-5.07,0-7.6C-83.86,155.34-86.11,155.34-86.11,156.79z"/>
		</g>
	</g>
</g>
</svg>
