<?xml version="1.0" encoding="utf-8"?>
<!-- Generator: Adobe Illustrator 26.0.3, SVG Export Plug-In . SVG Version: 6.00 Build 0)  -->
<svg version="1.1" id="레이어_1" xmlns="http://www.w3.org/2000/svg" xmlns:xlink="http://www.w3.org/1999/xlink" x="0px"
	 y="0px" viewBox="0 0 37.37 37.37" style="enable-background:new 0 0 37.37 37.37;" xml:space="preserve">
<style type="text/css">
	.st0{fill:#FFFFFF;}
	.st1{fill:#FFFFFF;stroke:#9E9E9E;stroke-width:0.0788;stroke-miterlimit:10;}
	.st2{display:none;}
	.st3{display:inline;fill:#60B630;}
	.st4{fill:#60B630;}
	.st5{fill:none;}
</style>
<rect class="st0" width="37.37" height="37.37"/>
<g>
	<g>
		<path class="st4" d="M33.61,11.75c-0.35-1.13-0.79-2.05-1.32-2.76c-0.53-0.71-1.19-1.33-1.96-1.85c-0.78-0.52-1.51-0.91-2.2-1.19
			c-0.69-0.27-1.45-0.48-2.29-0.62c-0.84-0.14-1.5-0.23-1.96-0.25c-0.47-0.03-0.96-0.04-1.48-0.04h-7.76
			c-10.76,0-11.37,11.22-11.4,13.15v0.28v9.69c0,2.3,1.87,4.17,4.17,4.17H8.3c2,0,3.61-1.45,4.07-3.4c0.29-1.22,1.38-2.12,2.69-2.12
			h7.66c0.47,0,0.97-0.03,1.52-0.1c0.54-0.06,1.2-0.19,1.96-0.39c0.76-0.19,1.5-0.45,2.2-0.78c0.7-0.32,1.41-0.78,2.14-1.36
			c0.73-0.58,1.35-1.26,1.87-2.02c0.52-0.76,0.94-1.72,1.26-2.86c0.32-1.14,0.49-2.4,0.49-3.79C34.14,14.13,33.96,12.87,33.61,11.75
			z M15.85,13.14c0-0.92,0.74-1.66,1.66-1.66c0.92,0,1.66,0.74,1.66,1.66c0,0.92-0.74,1.66-1.66,1.66
			C16.59,14.8,15.85,14.06,15.85,13.14z M29.49,19.22c0,2.49-2.8,4.51-6.25,4.51c-3.45,0-6.25-2.02-6.25-4.51v-0.87
			c0-0.69,0.56-1.25,1.25-1.25h10c0.69,0,1.25,0.56,1.25,1.25V19.22z M28.98,14.8c-0.92,0-1.66-0.74-1.66-1.66
			c0-0.92,0.74-1.66,1.66-1.66c0.92,0,1.66,0.74,1.66,1.66C30.64,14.06,29.9,14.8,28.98,14.8z"/>
	</g>
</g>
</svg>
