<?xml version="1.0" encoding="utf-8"?>
<!-- Generator: Adobe Illustrator 26.0.3, SVG Export Plug-In . SVG Version: 6.00 Build 0)  -->
<svg version="1.1" id="레이어_1" xmlns="http://www.w3.org/2000/svg" xmlns:xlink="http://www.w3.org/1999/xlink" x="0px"
	 y="0px" viewBox="0 0 37.4 37.8" style="enable-background:new 0 0 37.4 37.8;" xml:space="preserve" fill="#60B630">
<g>
	<g>
		<g>
			<g>
				<path class="st4" d="M19.5,30c-0.5,0.4-1.1,0.4-1.6,0l-7.8-6c-3.3-2.6-4.2-7.6-1.8-11.2c1.2-1.8,2.9-3,5-3.4
					c1.7-0.3,3.3,0,4.8,0.9c0.4,0.2,0.9,0.2,1.3,0c1.5-0.9,3.1-1.2,4.8-0.9c2,0.4,3.8,1.5,5,3.4c2.4,3.6,1.5,8.6-1.8,11.2L19.5,30z
					 M14.5,11.6c-0.3,0-0.6,0-0.8,0.1c-1.4,0.2-2.7,1.1-3.5,2.4c-1.7,2.7-1.2,6.4,1.3,8.2l6.5,4.9c0.5,0.4,1.1,0.4,1.6,0l6.5-4.9
					c2.5-1.9,3-5.6,1.3-8.2l0,0c-0.8-1.3-2.1-2.1-3.5-2.4c-1.4-0.2-2.7,0.1-3.9,1L19.5,13c-0.5,0.4-1.1,0.4-1.6,0l-0.4-0.3
					C16.6,12,15.5,11.6,14.5,11.6z"/>
			</g>
		</g>
	</g>
</g>
</svg>
