<?xml version="1.0" encoding="utf-8"?>
<!-- Generator: Adobe Illustrator 26.0.3, SVG Export Plug-In . SVG Version: 6.00 Build 0)  -->
<svg version="1.1" id="레이어_1" xmlns="http://www.w3.org/2000/svg" xmlns:xlink="http://www.w3.org/1999/xlink" x="0px"
		 y="0px" viewBox="0 0 37.37 37.77" style="enable-background:new 0 0 37.37 37.77;" xml:space="preserve" fill="#99C729">
<g>
	<path class="st6" d="M35.14,4.21H14.97c0.33,0.54,0.52,1.17,0.52,1.84v3.8h19.65c1.1,0,2-0.9,2-2V6.21
		C37.14,5.1,36.24,4.21,35.14,4.21z"/>
	<path class="st6" d="M35.14,12.01H15.49v3.59c0,0.76-0.24,1.46-0.65,2.04h20.3c1.1,0,2-0.9,2-2v-1.64
		C37.14,12.9,36.24,12.01,35.14,12.01z"/>
	<path class="st6" d="M35.14,19.69H2.32c-1.1,0-2,0.9-2,2v1.64c0,1.1,0.89,2,2,2h32.82c1.1,0,2-0.9,2-2v-1.64
		C37.14,20.58,36.24,19.69,35.14,19.69z"/>
	<path class="st6" d="M35.06,27.4H2.23c-1.1,0-2,0.89-2,2v1.64c0,1.1,0.89,2,2,2h32.82c1.1,0,2-0.9,2-2V29.4
		C37.06,28.3,36.16,27.4,35.06,27.4z"/>
	<path class="st6" d="M2.23,17.64h8.93c1.05,0,1.91-0.9,1.91-2.01V6.22c0-1.79-2.05-2.69-3.25-1.42l-8.93,9.41
		C-0.32,15.48,0.53,17.64,2.23,17.64z"/>
</g>
</svg>
