<?xml version="1.0" encoding="utf-8"?>
<!-- Generator: Adobe Illustrator 26.0.3, SVG Export Plug-In . SVG Version: 6.00 Build 0)  -->
<svg version="1.1" id="레이어_1" xmlns="http://www.w3.org/2000/svg" xmlns:xlink="http://www.w3.org/1999/xlink" x="0px"
	 y="0px" viewBox="0 0 37.37 37.77" style="enable-background:new 0 0 37.37 37.77;" xml:space="preserve" fill="#60B630">
<!--<style type="text/css">-->
<!--	.st0{display:none;}-->
<!--	.st1{display:inline;fill:#FFFFFF;stroke:#9E9E9E;stroke-width:0.0788;stroke-miterlimit:10;}-->
<!--	.st2{display:inline;fill:#60B630;}-->
<!--	.st3{fill:#FFFFFF;}-->
<!--	.st4{fill:none;}-->
<!--	.st5{fill:#60B630;}-->
<!--</style>-->
<path class="st5" d="M35.31,12.93L19.77,0.71c-0.6-0.47-1.57-0.47-2.17,0L2.07,12.93c-0.93,0.73-1.45,1.72-1.45,2.76v18.18
	c0,2.15,2.22,3.9,4.96,3.9H31.8c2.74,0,4.96-1.75,4.96-3.9V15.69C36.76,14.66,36.24,13.66,35.31,12.93z M25.37,32.25
	c0,1.41-1.15,2.56-2.56,2.56h-7.4c-1.41,0-2.56-1.15-2.56-2.56V18.76c0-1.41,1.15-2.56,2.56-2.56h7.4c1.41,0,2.56,1.15,2.56,2.56
	V32.25z"/>
</svg>
