<?xml version="1.0" encoding="utf-8"?>
<!-- Generator: Adobe Illustrator 26.0.3, SVG Export Plug-In . SVG Version: 6.00 Build 0)  -->
<svg version="1.1" id="레이어_1" xmlns="http://www.w3.org/2000/svg" xmlns:xlink="http://www.w3.org/1999/xlink" x="0px"
	 y="0px" viewBox="0 0 37.37 37.77" style="enable-background:new 0 0 37.37 37.77;" xml:space="preserve">
<style type="text/css">
	.st0{display:none;fill:#FFFFFF;}
	.st1{fill:#FFFFFF;stroke:#9E9E9E;stroke-width:0.0788;stroke-miterlimit:10;}
	.st2{fill:#60B630;}
	.st3{display:none;}
	.st4{display:inline;}
	.st5{fill:#60B630;}
	.st6{fill:#FFFFFF;}
	.st7{fill:none;}
	.st8{fill:#FFFFFF;stroke:#9E9E9E;stroke-width:0.0951;stroke-miterlimit:10;}
</style>
<rect class="st0" width="37.37" height="37.77"/>
<g>
	<path class="st1" d="M172.72-686.88l-7.96-7.96l7.96-7.96c0.65-0.65,0.65-1.7,0-2.34l-0.96-0.96c-0.65-0.65-1.69-0.65-2.34,0
		l-7.96,7.96l-7.96-7.96c-0.65-0.65-1.7-0.65-2.34,0l-0.96,0.96c-0.65,0.65-0.65,1.69,0,2.34l7.96,7.96l-7.96,7.96
		c-0.65,0.65-0.65,1.7,0,2.34l0.96,0.96c0.65,0.65,1.7,0.65,2.34,0l7.96-7.96l7.96,7.96c0.65,0.65,1.7,0.65,2.34,0l0.96-0.96
		C173.37-685.18,173.37-686.23,172.72-686.88z"/>
</g>
<g>
	<g>
		<path class="st2" d="M-54.31,66.45c-0.38,0.38-0.6,0.9-0.61,1.44l-0.06,5.82c-0.01,1.16,0.93,2.1,2.09,2.09l5.82-0.06
			c0.54-0.01,1.06-0.22,1.44-0.61l15.27-15.27l-8.77-8.6L-54.31,66.45z"/>
	</g>

		<rect x="-39.01" y="52.66" transform="matrix(-0.7071 -0.7071 0.7071 -0.7071 -94.0672 68.4169)" class="st2" width="12.28" height="2.05"/>
	<path class="st2" d="M-26.68,56.19c2.4-2.4,2.4-6.29,0-8.69c-2.4-2.4-6.29-2.4-8.69,0L-26.68,56.19z"/>
</g>
<g class="st3">
	<g class="st4">
		<path class="st5" d="M5.48,15.73c0-3.68,3.22-6.62,6.99-6.16c3.15,0.39,5.43,3.24,5.43,6.41v0.6c0,0.02,0.02,0.04,0.04,0.04h2.77
			c0.02,0,0.04-0.02,0.04-0.04v-0.49c0-4.85-3.65-9.1-8.49-9.41c-5.26-0.33-9.65,3.86-9.65,9.05v0.89h2.86V15.73z"/>
		<path class="st5" d="M19.17,19.58h-2.36H6.56H4.21h0c-0.87,0-1.58,0.63-1.58,1.4v8.78c0,0.77,0.71,1.4,1.58,1.4h14.97
			c0.87,0,1.58-0.63,1.58-1.4v-8.78C20.76,20.21,20.05,19.58,19.17,19.58L19.17,19.58z"/>
	</g>
</g>
<g>
	<path class="st5" d="M19.47,15.71c0-3.68,3.22-6.62,6.99-6.16c3.15,0.39,5.43,3.24,5.43,6.41l0,0.6c0,0.02,0.02,0.04,0.04,0.04
		h2.77c0.02,0,0.04-0.02,0.04-0.04v-0.49c0-4.85-3.65-9.1-8.49-9.41c-5.26-0.33-9.65,3.86-9.65,9.05v0.89h2.86V15.71z"/>
	<path class="st5" d="M19.17,19.56h-2.36H6.56H4.21h0c-0.87,0-1.58,0.63-1.58,1.4v8.78c0,0.77,0.71,1.4,1.58,1.4h14.97
		c0.87,0,1.58-0.63,1.58-1.4v-8.78C20.76,20.19,20.05,19.56,19.17,19.56L19.17,19.56z"/>
</g>
<path class="st6" d="M114.82-56.05l-0.27-0.09l0.25-0.14c2.59-1.39,4.19-4.04,4.19-6.91c0-4.35-3.64-7.89-8.12-7.89
	s-8.12,3.54-8.12,7.89c0,2.87,1.61,5.51,4.19,6.91l0.25,0.14l-0.27,0.09c-4.92,1.69-8.22,6.3-8.22,11.49v5.28h24.34v-5.59
	C123.05-49.91,119.74-54.41,114.82-56.05z M107.27-64.14c0-0.55,0.45-1,1-1s1,0.45,1,1s-0.45,1-1,1S107.27-63.58,107.27-64.14z
	 M113.95-60.39c0,1.26-1.38,2.29-3.08,2.29s-3.08-1.03-3.08-2.29v-0.4c0-0.45,0.37-0.81,0.81-0.81h4.53c0.45,0,0.81,0.37,0.81,0.81
	V-60.39z M113.47-63.14c-0.55,0-1-0.45-1-1s0.45-1,1-1s1,0.45,1,1S114.03-63.14,113.47-63.14z"/>
<g>
	<path class="st7" d="M-83.35-66.35c-3.55,2.33-4.54,7.11-2.21,10.66c2.33,3.55,7.11,4.55,10.66,2.21
		c3.55-2.33,4.54-7.11,2.21-10.66C-75.02-67.69-79.79-68.68-83.35-66.35z"/>
	<path class="st2" d="M-153.75-62.65l-15.68-12.34c-0.6-0.47-1.59-0.47-2.19,0l-15.68,12.34c-0.94,0.74-1.47,1.74-1.47,2.78v18.36
		c0,2.18,2.24,3.94,5.01,3.94h26.48c2.76,0,5.01-1.76,5.01-3.94v-18.36C-152.29-60.91-152.82-61.91-153.75-62.65z M-163.78-43.14
		c0,1.43-1.16,2.58-2.58,2.58h-7.47c-1.43,0-2.58-1.16-2.58-2.58v-13.62c0-1.43,1.16-2.58,2.58-2.58h7.47
		c1.43,0,2.58,1.16,2.58,2.58V-43.14z"/>
	<g>
		<path class="st8" d="M33.58-69.07H13.41c0.33,0.54,0.52,1.17,0.52,1.84v3.8h19.65c1.1,0,2-0.9,2-2v-1.64
			C35.58-68.18,34.68-69.07,33.58-69.07z"/>
		<path class="st8" d="M33.58-61.28H13.93v3.59c0,0.76-0.24,1.46-0.65,2.04h20.3c1.1,0,2-0.9,2-2v-1.64
			C35.58-60.38,34.68-61.28,33.58-61.28z"/>
		<path class="st8" d="M33.58-53.6H0.76c-1.1,0-2,0.9-2,2v1.64c0,1.1,0.89,2,2,2h32.82c1.1,0,2-0.9,2-2v-1.64
			C35.58-52.7,34.68-53.6,33.58-53.6z"/>
		<path class="st8" d="M33.49-45.88H0.67c-1.1,0-2,0.89-2,2v1.64c0,1.1,0.89,2,2,2h32.82c1.1,0,2-0.9,2-2v-1.64
			C35.49-44.99,34.6-45.88,33.49-45.88z"/>
		<path class="st6" d="M0.67-55.64h8.93c1.05,0,1.91-0.9,1.91-2.01v-9.41c0-1.79-2.05-2.69-3.25-1.42l-8.93,9.41
			C-1.88-57.81-1.03-55.64,0.67-55.64z"/>
	</g>
	<path class="st6" d="M-69.69-50.53c5.52-5.54,5.41-15.25-2.12-20.57c-2.76-1.95-6.26-2.68-9.57-1.99
		c-11.97,2.5-15.05,17.31-5.06,24.37c2.76,1.95,6.26,2.68,9.57,1.99c0.92-0.19,1.78-0.47,2.6-0.79l5.96,9.08
		c0.59,0.89,1.79,1.14,2.68,0.56l1.34-0.88c0.89-0.59,1.14-1.79,0.56-2.68L-69.69-50.53z M-74.9-53.47
		c-3.56,2.33-8.33,1.34-10.66-2.21c-2.33-3.55-1.34-8.33,2.21-10.66c3.55-2.33,8.33-1.34,10.66,2.21
		C-70.35-60.58-71.34-55.81-74.9-53.47z"/>
</g>
</svg>
