<?xml version="1.0" encoding="utf-8"?>
<!-- Generator: Adobe Illustrator 26.0.3, SVG Export Plug-In . SVG Version: 6.00 Build 0)  -->
<svg version="1.1" id="레이어_1" xmlns="http://www.w3.org/2000/svg" xmlns:xlink="http://www.w3.org/1999/xlink" x="0px"
	 y="0px" viewBox="0 0 37.37 37.77" style="enable-background:new 0 0 37.37 37.77;" xml:space="preserve" fill="#60B630">
<g>
	<g>
		<g>
			<g>
				<g>
					<path class="st4" d="M18.69,35.05c-9.02,0-16.36-7.34-16.36-16.36c0-9.02,7.34-16.37,16.36-16.37
						c9.02,0,16.37,7.34,16.37,16.37C35.05,27.71,27.71,35.05,18.69,35.05z M18.69,6.05c-6.97,0-12.64,5.67-12.64,12.64
						c0,6.97,5.67,12.64,12.64,12.64c6.97,0,12.64-5.67,12.64-12.64C31.32,11.72,25.65,6.05,18.69,6.05z"/>
				</g>
			</g>
		</g>
	</g>
	<g>
		<g>
			<path class="st4" d="M12.4,21.21c-0.17,0.17-0.26,0.39-0.26,0.62l-0.02,2.52c0,0.5,0.4,0.91,0.9,0.9l2.52-0.02
				c0.23,0,0.46-0.1,0.62-0.26l6.62-6.62l-3.8-3.73L12.4,21.21z"/>
		</g>

			<rect x="19.03" y="15.23" transform="matrix(-0.7071 -0.7071 0.7071 -0.7071 25.955 42.1018)" class="st4" width="5.33" height="0.89"/>
		<path class="st4" d="M24.38,16.76c1.04-1.04,1.04-2.73,0-3.77c-1.04-1.04-2.73-1.04-3.77,0L24.38,16.76z"/>
	</g>
</g>
</svg>
