<?xml version="1.0" encoding="utf-8"?>
<!-- Generator: Adobe Illustrator 26.0.3, SVG Export Plug-In . SVG Version: 6.00 Build 0)  -->
<svg version="1.1" id="레이어_1" xmlns="http://www.w3.org/2000/svg" xmlns:xlink="http://www.w3.org/1999/xlink" x="0px"
	 y="0px" viewBox="0 0 37.37 37.77" style="enable-background:new 0 0 37.37 37.77;" xml:space="preserve" fill="#60B630">
<path class="st4" d="M23.07,17.72l-0.3-0.1l0.28-0.15c2.87-1.55,4.66-4.48,4.66-7.67c0-4.83-4.05-8.76-9.02-8.76S9.67,4.97,9.67,9.8
	c0,3.18,1.78,6.12,4.66,7.67l0.28,0.15l-0.3,0.1c-5.46,1.87-9.13,7-9.13,12.76v5.86H32.2v-6.21C32.2,24.53,28.53,19.54,23.07,17.72z
	 M14.69,8.74c0-0.61,0.5-1.11,1.11-1.11c0.61,0,1.11,0.5,1.11,1.11c0,0.61-0.5,1.11-1.11,1.11C15.19,9.85,14.69,9.35,14.69,8.74z
	 M22.1,12.9c0,1.4-1.53,2.55-3.42,2.55s-3.42-1.14-3.42-2.55v-0.44c0-0.5,0.41-0.9,0.9-0.9h5.03c0.5,0,0.9,0.41,0.9,0.9V12.9z
	 M21.57,9.85c-0.61,0-1.11-0.5-1.11-1.11c0-0.61,0.5-1.11,1.11-1.11c0.61,0,1.11,0.5,1.11,1.11C22.68,9.35,22.18,9.85,21.57,9.85z"
	/>
</svg>
