<?xml version="1.0" encoding="utf-8"?>
<!-- Generator: Adobe Illustrator 26.0.3, SVG Export Plug-In . SVG Version: 6.00 Build 0)  -->
<svg version="1.1" id="레이어_1" xmlns="http://www.w3.org/2000/svg" xmlns:xlink="http://www.w3.org/1999/xlink" x="0px"
	 y="0px" viewBox="0 0 37.37 37.77" style="enable-background:new 0 0 37.37 37.77;" xml:space="preserve" fill="#60B630">
<g>
	<path class="st4" d="M130.81,23.14l-4.26-4.26l4.26-4.26c0.35-0.35,0.35-0.91,0-1.25l-0.51-0.51c-0.35-0.35-0.91-0.35-1.25,0
		l-4.26,4.26l-4.26-4.26c-0.35-0.35-0.91-0.35-1.25,0l-0.51,0.51c-0.35,0.35-0.35,0.91,0,1.25l4.26,4.26l-4.26,4.26
		c-0.35,0.35-0.35,0.91,0,1.25l0.51,0.51c0.35,0.35,0.91,0.35,1.25,0l4.26-4.26l4.26,4.26c0.35,0.35,0.91,0.35,1.25,0l0.51-0.51
		C131.16,24.05,131.16,23.49,130.81,23.14z"/>
</g>
<g>
	<g>
		<g>
			<g>
				<g>
					<path class="st4" d="M18.69,34.93c-8.84,0-16.04-7.2-16.04-16.04S9.84,2.85,18.69,2.85s16.04,7.19,16.04,16.04
						S27.53,34.93,18.69,34.93z M18.69,3.66c-8.4,0-15.23,6.83-15.23,15.23s6.83,15.23,15.23,15.23s15.23-6.83,15.23-15.23
						S27.08,3.66,18.69,3.66z"/>
				</g>
			</g>
		</g>
		<path class="st4" d="M27.3,17.41h-7.14v-7.14c0-0.58-0.47-1.05-1.05-1.05h-0.86c-0.58,0-1.05,0.47-1.05,1.05v7.14h-7.14
			c-0.58,0-1.05,0.47-1.05,1.05v0.86c0,0.58,0.47,1.05,1.05,1.05h7.14v7.14c0,0.58,0.47,1.05,1.05,1.05h0.86
			c0.58,0,1.05-0.47,1.05-1.05v-7.14h7.14c0.58,0,1.05-0.47,1.05-1.05v-0.86C28.35,17.88,27.88,17.41,27.3,17.41z"/>
	</g>
</g>
</svg>
