<?xml version="1.0" encoding="utf-8"?>
<!-- Generator: Adobe Illustrator 26.0.3, SVG Export Plug-In . SVG Version: 6.00 Build 0)  -->
<svg version="1.1" id="레이어_1" xmlns="http://www.w3.org/2000/svg" xmlns:xlink="http://www.w3.org/1999/xlink" x="0px"
	 y="0px" viewBox="0 0 37.37 37.77" style="enable-background:new 0 0 37.37 37.77;" xml:space="preserve" fill="#60B630">
<g>
	<path class="st4" d="M27.04,16.81h-6.48v-6.48c0-0.8-0.65-1.46-1.46-1.46h-0.83c-0.8,0-1.46,0.65-1.46,1.46v6.48h-6.48
		c-0.8,0-1.46,0.65-1.46,1.46v0.83c0,0.8,0.65,1.46,1.46,1.46h6.48v6.48c0,0.8,0.65,1.46,1.46,1.46h0.83c0.8,0,1.46-0.65,1.46-1.46
		v-6.48h6.48c0.8,0,1.46-0.65,1.46-1.46v-0.83C28.5,17.47,27.84,16.81,27.04,16.81z"/>
	<g>
		<g>
			<g>
				<path class="st4" d="M18.69,36.01c-9.55,0-17.33-7.77-17.33-17.33c0-9.55,7.77-17.33,17.33-17.33c9.55,0,17.33,7.77,17.33,17.33
					C36.01,28.24,28.24,36.01,18.69,36.01z M18.69,5.31c-7.38,0-13.38,6-13.38,13.38c0,7.38,6,13.38,13.38,13.38
					c7.38,0,13.38-6,13.38-13.38C32.06,11.31,26.06,5.31,18.69,5.31z"/>
			</g>
		</g>
	</g>
</g>
</svg>
