<?xml version="1.0" encoding="utf-8"?>
<!-- Generator: Adobe Illustrator 26.0.3, SVG Export Plug-In . SVG Version: 6.00 Build 0)  -->
<svg version="1.1" id="레이어_1" xmlns="http://www.w3.org/2000/svg" xmlns:xlink="http://www.w3.org/1999/xlink" x="0px"
	 y="0px" viewBox="0 0 37.37 37.77" style="enable-background:new 0 0 37.37 37.77;" xml:space="preserve">
<style type="text/css">
	.st0{display:none;fill:#FFFFFF;}
	.st1{fill:#FFFFFF;stroke:#9E9E9E;stroke-width:0.0788;stroke-miterlimit:10;}
	.st2{display:none;}
	.st3{display:inline;fill:#60B630;}
	.st4{fill:#60B630;}
	.st5{fill:none;}
</style>
<rect class="st0" width="37.37" height="37.37"/>
<g>
	<path class="st1" d="M172.72-686.88l-7.96-7.96l7.96-7.96c0.65-0.65,0.65-1.7,0-2.34l-0.96-0.96c-0.65-0.65-1.69-0.65-2.34,0
		l-7.96,7.96l-7.96-7.96c-0.65-0.65-1.7-0.65-2.34,0l-0.96,0.96c-0.65,0.65-0.65,1.69,0,2.34l7.96,7.96l-7.96,7.96
		c-0.65,0.65-0.65,1.7,0,2.34l0.96,0.96c0.65,0.65,1.7,0.65,2.34,0l7.96-7.96l7.96,7.96c0.65,0.65,1.7,0.65,2.34,0l0.96-0.96
		C173.37-685.18,173.37-686.23,172.72-686.88z"/>
</g>
<g class="st2">
	<path class="st3" d="M19.47,15.71c0-3.68,3.22-6.62,6.99-6.16c3.15,0.39,5.43,3.24,5.43,6.41l0,0.6c0,0.02,0.02,0.04,0.04,0.04
		h2.77c0.02,0,0.04-0.02,0.04-0.04v-0.49c0-4.85-3.65-9.1-8.49-9.41c-5.26-0.33-9.65,3.86-9.65,9.05v0.89h2.86V15.71z"/>
	<path class="st3" d="M19.17,19.56h-2.36H6.56H4.21h0c-0.87,0-1.58,0.63-1.58,1.4v8.78c0,0.77,0.71,1.4,1.58,1.4h14.97
		c0.87,0,1.58-0.63,1.58-1.4v-8.78C20.76,20.19,20.05,19.56,19.17,19.56L19.17,19.56z"/>
</g>
<path class="st4" d="M59.99-32.45l-0.3-0.1l0.28-0.15c2.87-1.55,4.66-4.48,4.66-7.67c0-4.83-4.05-8.76-9.02-8.76
	s-9.02,3.93-9.02,8.76c0,3.18,1.78,6.12,4.66,7.67l0.28,0.15l-0.3,0.1c-5.46,1.87-9.13,7-9.13,12.76v5.86h27.03v-6.21
	C69.12-25.64,65.45-30.62,59.99-32.45z M51.61-41.43c0-0.61,0.5-1.11,1.11-1.11s1.11,0.5,1.11,1.11s-0.5,1.11-1.11,1.11
	S51.61-40.82,51.61-41.43z M59.03-37.26c0,1.4-1.53,2.55-3.42,2.55c-1.89,0-3.42-1.14-3.42-2.55v-0.44c0-0.5,0.41-0.9,0.9-0.9h5.03
	c0.5,0,0.9,0.41,0.9,0.9V-37.26z M58.49-40.32c-0.61,0-1.11-0.5-1.11-1.11s0.5-1.11,1.11-1.11c0.61,0,1.11,0.5,1.11,1.11
	S59.11-40.32,58.49-40.32z"/>
<path class="st5" d="M-83.35-66.35c-3.55,2.33-4.54,7.11-2.21,10.66c2.33,3.55,7.11,4.55,10.66,2.21c3.55-2.33,4.54-7.11,2.21-10.66
	C-75.02-67.69-79.79-68.68-83.35-66.35z"/>
<g>
	<path class="st4" d="M16.45-39.28H-3.71c0.33,0.54,0.52,1.17,0.52,1.84v3.8h19.65c1.1,0,2-0.9,2-2v-1.64
		C18.45-38.38,17.56-39.28,16.45-39.28z"/>
	<path class="st4" d="M16.45-31.48H-3.2v3.59c0,0.76-0.24,1.46-0.65,2.04h20.3c1.1,0,2-0.9,2-2v-1.64
		C18.45-30.58,17.56-31.48,16.45-31.48z"/>
	<path class="st4" d="M16.45-23.8h-32.82c-1.1,0-2,0.9-2,2v1.64c0,1.1,0.89,2,2,2h32.82c1.1,0,2-0.9,2-2v-1.64
		C18.45-22.91,17.56-23.8,16.45-23.8z"/>
	<path class="st4" d="M16.37-16.09h-32.82c-1.1,0-2,0.89-2,2v1.64c0,1.1,0.89,2,2,2h32.82c1.1,0,2-0.9,2-2v-1.64
		C18.37-15.19,17.47-16.09,16.37-16.09z"/>
	<path class="st4" d="M-16.46-25.84h8.93c1.05,0,1.91-0.9,1.91-2.01v-9.41c0-1.79-2.05-2.69-3.25-1.42l-8.93,9.41
		C-19.01-28.01-18.16-25.84-16.46-25.84z"/>
</g>
<path class="st4" d="M-31.08,13.59c5.52-5.54,5.41-15.25-2.12-20.57c-2.76-1.95-6.26-2.68-9.57-1.99
	c-11.97,2.5-15.05,17.31-5.06,24.37c2.76,1.95,6.26,2.68,9.57,1.99c0.92-0.19,1.78-0.47,2.6-0.79l5.96,9.08
	c0.59,0.89,1.79,1.14,2.68,0.56l1.34-0.88c0.89-0.59,1.14-1.79,0.56-2.68L-31.08,13.59z M-36.28,10.65
	c-3.56,2.33-8.33,1.34-10.66-2.21c-2.33-3.55-1.34-8.33,2.21-10.66c3.55-2.33,8.33-1.34,10.66,2.21
	C-31.74,3.54-32.73,8.31-36.28,10.65z"/>
<g>
	<g>
		<path class="st4" d="M-19.46,4.38l-10.14,3.77c-1.08,0.4-2.22-0.4-2.22-1.54l0.02-16.78c0-0.69,0.43-1.3,1.07-1.54l10.14-3.77
			c1.08-0.4,2.22,0.4,2.22,1.54l-0.02,16.78C-18.39,3.52-18.81,4.14-19.46,4.38z"/>
		<path class="st4" d="M-45.45,4.38l10.14,3.77c1.08,0.4,2.22-0.4,2.22-1.54l-0.02-16.78c0-0.69-0.43-1.3-1.07-1.54l-10.14-3.77
			c-1.08-0.4-2.22,0.4-2.22,1.54l0.02,16.78C-46.52,3.52-46.09,4.14-45.45,4.38z"/>
	</g>
	<path class="st4" d="M-32.93-12.71l-11.38-4.24c-1.15-0.43-1.14-2.06,0.01-2.47l11.44-4.11c0.29-0.11,0.61-0.1,0.9,0.01l11.38,4.24
		c1.15,0.43,1.14,2.06-0.01,2.47l-11.44,4.11C-32.31-12.6-32.63-12.61-32.93-12.71z"/>
</g>
<g>
	<g>
		<g>
			<g>
				<g>
					<g>
						<path class="st4" d="M18.69,36.4c-9.49,0-17.21-7.85-17.21-17.51c0-9.65,7.72-17.51,17.21-17.51S35.9,9.23,35.9,18.89
							C35.9,28.54,28.18,36.4,18.69,36.4z M18.69,3.38c-8.39,0-15.21,6.96-15.21,15.51S10.3,34.4,18.69,34.4S33.9,27.44,33.9,18.89
							S27.07,3.38,18.69,3.38z"/>
					</g>
				</g>
			</g>
		</g>
	</g>
</g>
</svg>
