<?xml version="1.0" encoding="utf-8"?>
<!-- Generator: Adobe Illustrator 26.0.3, SVG Export Plug-In . SVG Version: 6.00 Build 0)  -->
<svg version="1.1" id="레이어_1" xmlns="http://www.w3.org/2000/svg" xmlns:xlink="http://www.w3.org/1999/xlink" x="0px"
	 y="0px" viewBox="0 0 37.37 37.77" style="enable-background:new 0 0 37.37 37.77;" xml:space="preserve" fill="#60B630">
<!--<style type="text/css">-->
<!--	.st0{display:none;fill:#FFFFFF;}-->
<!--	.st1{fill:#FFFFFF;stroke:#9E9E9E;stroke-width:0.0788;stroke-miterlimit:10;}-->
<!--	.st2{display:none;}-->
<!--	.st3{display:inline;fill:#60B630;}-->
<!--	.st4{fill:#FFFFFF;}-->
<!--	.st5{fill:none;}-->
<!--	.st6{fill:#FFFFFF;stroke:#9E9E9E;stroke-width:0.0951;stroke-miterlimit:10;}-->
<!--	.st7{fill:#60B630;}-->
<!--</style>-->
<!--<rect y="0.2" class="st0" width="37.37" height="37.37"/>-->
<path class="st7" d="M26.91,24.01c5.52-5.54,5.41-15.25-2.12-20.57c-2.76-1.95-6.26-2.68-9.57-1.99
	C3.25,3.96,0.18,18.77,10.17,25.83c2.76,1.95,6.26,2.68,9.57,1.99c0.92-0.19,1.78-0.47,2.6-0.79l5.96,9.08
	c0.59,0.89,1.79,1.14,2.68,0.56l1.34-0.88c0.89-0.59,1.14-1.79,0.56-2.68L26.91,24.01z M21.71,21.07
	c-3.56,2.33-8.33,1.34-10.66-2.21C8.71,15.3,9.7,10.53,13.26,8.2c3.55-2.33,8.33-1.34,10.66,2.21
	C26.25,13.96,25.26,18.74,21.71,21.07z"/>
</svg>
