<?xml version="1.0" encoding="UTF-8"?>
<svg width="1200pt" height="1200pt" version="1.1" viewBox="0 0 1200 1200" xmlns="http://www.w3.org/2000/svg" fill="#000">
 <path d="m1114.3 112.99-364.98 988.76c-1.957 5.3008-5.9492 9.6016-11.086 11.949-5.1367 2.3516-11 2.5547-16.289 0.57031-5.2891-1.9883-9.5664-6-11.891-11.152l-176.25-391.88 207.71-207.75c7.2695-8.1758 9.832-19.512 6.793-30.023s-11.254-18.73-21.766-21.77c-10.512-3.0391-21.848-0.47266-30.027 6.793l-207.71 207.75-391.88-176.25c-5.1523-2.3125-9.168-6.5898-11.156-11.879-1.9883-5.2891-1.7812-11.152 0.57031-16.289s6.6523-9.1211 11.957-11.074l988.74-365.02c5.1016-1.875 10.727-1.7188 15.719 0.42578 4.9883 2.1484 8.9688 6.1289 11.117 11.117 2.1445 4.9922 2.3008 10.617 0.42578 15.719z"/>
</svg>
