<?xml version="1.0" encoding="utf-8"?>
<!-- Generator: Adobe Illustrator 26.0.3, SVG Export Plug-In . SVG Version: 6.00 Build 0)  -->
<svg version="1.1" id="레이어_1" xmlns="http://www.w3.org/2000/svg" xmlns:xlink="http://www.w3.org/1999/xlink" x="0px"
	 y="0px" viewBox="0 0 37.369999 37.77" style="enable-background:new 0 0 37.369999 37.77;" xml:space="preserve">
<style type="text/css">
	.st0{display:none;fill:#FFFFFF;}
	.st1{fill:#FFFFFF;stroke:#9E9E9E;stroke-width:0.0788;stroke-miterlimit:10;}
	.st2{display:none;}
	.st3{display:inline;fill:#60B630;}
	.st4{fill:#60B630;}
	.st5{fill:none;}
	.st6{fill:#9BC830;}
</style>
<rect y="0.000242" class="st0" width="37.369999" height="37.369999"/>
<g>
	<path class="st1" d="M172.720001-686.879761l-7.960007-7.960022l7.960007-7.960022c0.649994-0.650024,0.649994-1.700012,0-2.340027
		l-0.960007-0.960022c-0.649994-0.650024-1.690002-0.650024-2.339996,0l-7.960007,7.960022l-7.960007-7.960022
		c-0.649994-0.650024-1.699997-0.650024-2.339996,0l-0.960007,0.960022c-0.649994,0.650024-0.649994,1.690002,0,2.340027
		l7.960007,7.960022l-7.960007,7.960022c-0.649994,0.650024-0.649994,1.700012,0,2.340027l0.960007,0.960022
		c0.649994,0.650024,1.699997,0.650024,2.339996,0l7.960007-7.960022l7.960007,7.960022
		c0.649994,0.650024,1.699997,0.650024,2.339996,0l0.960007-0.960022
		C173.369995-685.179749,173.369995-686.229736,172.720001-686.879761z"/>
</g>
<g class="st2">
	<path class="st3" d="M19.469999,15.710242c0-3.68,3.219999-6.62,6.99-6.16c3.15,0.39,5.43,3.24,5.43,6.41v0.599999
		c0,0.02,0.02,0.040001,0.040001,0.040001h2.77c0.02,0,0.040001-0.02,0.040001-0.040001v-0.49c0-4.85-3.65-9.1-8.49-9.41
		c-5.26-0.33-9.65,3.86-9.65,9.05v0.89h2.860001v-0.89H19.469999z"/>
	<path class="st3" d="M19.17,19.560242h-2.360001H6.56H4.21l0,0c-0.87,0-1.58,0.629999-1.58,1.4v8.779999c0,0.77,0.71,1.4,1.58,1.4
		h14.97c0.870001,0,1.58-0.629999,1.58-1.4v-8.779999C20.76,20.190243,20.049999,19.560242,19.17,19.560242L19.17,19.560242z"/>
</g>
<path class="st4" d="M59.990002-32.44976l-0.299999-0.099998l0.279999-0.150002c2.869999-1.549999,4.660004-4.48,4.660004-7.670002
	c0-4.830002-4.049999-8.760002-9.02-8.760002s-9.02,3.93-9.02,8.760002c0,3.18,1.779999,6.119999,4.66,7.669998l0.279999,0.150002
	l-0.299999,0.099998c-5.459999,1.870003-9.130001,7.000002-9.130001,12.760002v5.860001h27.030003v-6.210001
	C69.120003-25.639757,65.449997-30.619759,59.990002-32.44976z M51.610001-41.42976c0-0.610001,0.5-1.110001,1.110001-1.110001
	s1.110001,0.5,1.110001,1.110001s-0.5,1.110001-1.110001,1.110001S51.610001-40.819759,51.610001-41.42976z M59.029999-37.259758
	c0,1.400002-1.529999,2.549999-3.419998,2.549999s-3.419998-1.139999-3.419998-2.549999v-0.439999
	c0-0.5,0.41-0.900002,0.900002-0.900002h5.029999c0.5,0,0.900002,0.41,0.900002,0.900002v0.439999H59.029999z M58.490002-40.319759
	c-0.610001,0-1.110001-0.5-1.110001-1.110001s0.5-1.110001,1.110001-1.110001s1.110001,0.5,1.110001,1.110001
	S59.110001-40.319759,58.490002-40.319759z"/>
<path class="st5" d="M-83.349998-66.349754c-3.550003,2.330002-4.540001,7.109997-2.209999,10.659996
	s7.110001,4.549999,10.660004,2.209999c3.550003-2.329998,4.540001-7.110001,2.209999-10.659996
	C-75.019997-67.689758-79.790001-68.679756-83.349998-66.349754z"/>
<g>
	<path class="st4" d="M16.450001-39.279758H-3.71c0.33,0.540001,0.52,1.169998,0.52,1.84v3.799999h19.65c1.1,0,2-0.900002,2-2
		v-1.639999C18.450001-38.379761,17.559999-39.279758,16.450001-39.279758z"/>
	<path class="st4" d="M16.450001-31.479757H-3.2v3.59c0,0.76-0.24,1.459999-0.65,2.040001h20.299999c1.1,0,2-0.9,2-2v-1.639999
		C18.450001-30.579758,17.559999-31.479757,16.450001-31.479757z"/>
	<path class="st4" d="M16.450001-23.799757h-32.82c-1.1,0-2,0.9-2,2v1.639999c0,1.1,0.889999,2,2,2h32.82c1.1,0,2-0.9,2-2v-1.639999
		C18.450001-22.909758,17.559999-23.799757,16.450001-23.799757z"/>
	<path class="st4" d="M16.370001-16.089758h-32.82c-1.1,0-2,0.89-2,2v1.64c0,1.1,0.889999,2,2,2h32.82c1.1,0,2-0.9,2-2v-1.64
		C18.370001-15.189757,17.469999-16.089758,16.370001-16.089758z"/>
	<path class="st4" d="M-16.459999-25.839758h8.93c1.05,0,1.91-0.9,1.91-2.01v-9.410004c0-1.790001-2.05-2.689999-3.25-1.419998
		l-8.93,9.410002C-19.01-28.009758-18.16-25.839758-16.459999-25.839758z"/>
</g>
<path class="st4" d="M-31.08,13.590242c5.52-5.54,5.41-15.25-2.120001-20.57c-2.759998-1.95-6.259998-2.68-9.57-1.99
	c-11.970001,2.5-15.049999,17.309999-5.060001,24.370001c2.759998,1.950001,6.260002,2.68,9.57,1.99
	c0.919998-0.190001,1.779999-0.469999,2.599998-0.790001l5.959999,9.08c0.59,0.889999,1.790001,1.139999,2.68,0.559999
	l1.34-0.879999c0.889999-0.59,1.139999-1.790001,0.559999-2.68L-31.08,13.590242z M-36.279999,10.650242
	c-3.560001,2.33-8.330002,1.34-10.66-2.21s-1.34-8.33,2.209999-10.66s8.329998-1.34,10.66,2.21S-32.73,8.310243-36.279999,10.650242
	z"/>
<g>
	<g>
		<g>
			<g>
				<path class="st4" d="M100.099998,24.460241c-5.440002,0-9.870003-4.43-9.870003-9.87s4.43-9.87,9.870003-9.87
					s9.870003,4.43,9.870003,9.87S105.550003,24.460241,100.099998,24.460241z M100.099998,5.230242
					c-5.159996,0-9.370003,4.2-9.370003,9.370001s4.199997,9.370001,9.370003,9.370001s9.370003-4.200001,9.370003-9.37
					S105.269997,5.230242,100.099998,5.230242z"/>
			</g>
		</g>
	</g>
	<g>
		<path class="st4" d="M105.400002,13.680243h-4.389999v-4.39c0-0.36-0.290001-0.65-0.650002-0.65h-0.529999
			c-0.360001,0-0.650002,0.29-0.650002,0.65v4.39h-4.389999c-0.360001,0-0.650002,0.29-0.650002,0.65v0.53
			c0,0.36,0.290001,0.65,0.650002,0.65H99.18v4.39c0,0.360001,0.290001,0.65,0.650002,0.65h0.529999
			c0.360001,0,0.650002-0.290001,0.650002-0.65v-4.4h4.389999c0.360001,0,0.650002-0.29,0.650002-0.65v-0.53
			C106.050003,13.970243,105.760002,13.680243,105.400002,13.680243z"/>
		<path class="st4" d="M100.370003,20.550241h-0.529999c-0.360001,0-0.660004-0.299999-0.660004-0.66v-4.37h-4.370003
			c-0.360001,0-0.660004-0.3-0.660004-0.66v-0.53c0-0.36,0.300003-0.66,0.660004-0.66H99.18v-4.38
			c0-0.36,0.300003-0.66,0.660004-0.66h0.529999c0.360001,0,0.660004,0.3,0.660004,0.66v4.38h4.370003
			c0.360001,0,0.660004,0.3,0.660004,0.66v0.53c0,0.36-0.300003,0.66-0.660004,0.66h-4.370003v4.37
			C101.029999,20.260242,100.730003,20.550241,100.370003,20.550241z M94.809998,13.700242c-0.349998,0-0.629997,0.28-0.629997,0.63
			v0.53c0,0.35,0.279999,0.63,0.629997,0.63h4.410004v4.41c0,0.35,0.279999,0.629999,0.629997,0.629999h0.529999
			c0.349998,0,0.629997-0.280001,0.629997-0.629999v-4.41h4.410004c0.349998,0,0.629997-0.28,0.629997-0.63v-0.53
			c0-0.35-0.279999-0.63-0.629997-0.63H101v-4.41c0-0.35-0.279999-0.63-0.629997-0.63h-0.529999
			c-0.349998,0-0.629997,0.28-0.629997,0.63v4.41H94.809998z"/>
	</g>
</g>
<g>
	<g>
		<g>
			<g>
				<g>
					<path class="st4" d="M119.849998,77.450241c-10.889999,0-19.739998-8.860001-19.739998-19.740002
						c0-10.889999,8.860001-19.75,19.739998-19.75c10.890007,0,19.750008,8.860001,19.750008,19.75
						C139.589996,68.59024,130.740005,77.450241,119.849998,77.450241z M119.849998,42.460239
						c-8.409996,0-15.239998,6.84-15.239998,15.25s6.839996,15.240002,15.239998,15.240002
						c8.409996,0,15.250008-6.839996,15.250008-15.240002C135.089996,49.30024,128.259995,42.460239,119.849998,42.460239z"/>
				</g>
			</g>
		</g>
	</g>
	<g>
		<g>
			<path class="st4" d="M112.260002,60.75024c-0.199997,0.200001-0.309998,0.470001-0.32,0.75l-0.029999,3.040005
				c-0.010002,0.599998,0.489998,1.099998,1.089996,1.089996l3.040001-0.029999c0.279999,0,0.550003-0.120003,0.75-0.32
				l7.989998-7.990002l-4.589996-4.5L112.260002,60.75024z"/>
		</g>
		
			<rect x="122.943024" y="50.857384" transform="matrix(0.707107 -0.707107 0.707107 0.707107 -2.069052 103.149567)" class="st4" width="1.069989" height="6.429938"/>
		<path class="st4" d="M126.720001,55.380241c1.25-1.25,1.25-3.290001,0-4.540001s-3.290001-1.25-4.540001,0L126.720001,55.380241z"
			/>
	</g>
</g>
<g>
	<path class="st4" d="M130.809998,23.140242l-4.260002-4.26l4.260002-4.26c0.350006-0.35,0.350006-0.91,0-1.25l-0.509995-0.51
		c-0.350006-0.35-0.910004-0.35-1.25,0l-4.260002,4.26l-4.260002-4.26c-0.349998-0.35-0.910004-0.35-1.25,0l-0.510002,0.51
		c-0.349998,0.35-0.349998,0.91,0,1.25l4.260002,4.26l-4.260002,4.26c-0.349998,0.35-0.349998,0.91,0,1.25l0.510002,0.51
		c0.349998,0.35,0.910004,0.35,1.25,0l4.260002-4.26l4.260002,4.26c0.350006,0.35,0.910004,0.35,1.25,0l0.509995-0.51
		C131.160004,24.050241,131.160004,23.490242,130.809998,23.140242z"/>
</g>
<g>
	<g>
		<g>
			<g>
				<g>
					<path class="st4" d="M75.5,101.330246c-8.839996,0-16.040001-7.199997-16.040001-16.040001S66.659996,69.250244,75.5,69.250244
						s16.040001,7.190002,16.040001,16.040001S84.339996,101.330246,75.5,101.330246z M75.5,70.060242
						c-8.400002,0-15.23,6.830002-15.23,15.229996s6.829998,15.229996,15.23,15.229996s15.229996-6.830002,15.229996-15.229996
						S83.889999,70.060242,75.5,70.060242z"/>
				</g>
			</g>
		</g>
		<path class="st4" d="M84.110001,83.810242h-7.139999v-7.139999c0-0.580002-0.470001-1.050003-1.050003-1.050003h-0.860001
			c-0.580002,0-1.050003,0.470001-1.050003,1.050003v7.139999h-7.139999c-0.580002,0-1.050003,0.470001-1.050003,1.050003v0.860001
			c0,0.580002,0.470001,1.050003,1.050003,1.050003h7.139999v7.139999c0,0.580002,0.470001,1.050003,1.050003,1.050003h0.860001
			c0.580002,0,1.050003-0.470001,1.050003-1.050003v-7.139999h7.139999c0.580002,0,1.050003-0.470001,1.050003-1.050003v-0.860001
			C85.160004,84.280243,84.690002,83.810242,84.110001,83.810242z"/>
	</g>
</g>
<g>
	<g>
		<g>
			<g>
				<g>
					<path class="st4" d="M-91.82,80.910248c-9.489998,0-17.209999-7.849998-17.209999-17.510006
						S-101.309998,45.89024-91.82,45.89024s17.209999,7.849998,17.209999,17.510002S-82.330002,80.910248-91.82,80.910248z
						 M-91.82,47.89024c-8.389999,0-15.209999,6.959999-15.209999,15.510002S-100.199997,78.910248-91.82,78.910248
						s15.209999-6.959999,15.209999-15.510006S-83.43,47.89024-91.82,47.89024z"/>
				</g>
			</g>
		</g>
	</g>
	<g>
		<g>
			<path class="st4" d="M-82.330002,58.210239c-2.050003-3.150002-6.07-3.900002-8.970001-1.68L-91.82,56.930241l-0.519997-0.400002
				c-2.910004-2.220001-6.919998-1.470001-8.970001,1.68s-1.349998,7.500004,1.550003,9.710003l7.940002,6.059998l7.940002-6.059998
				C-80.970001,65.700241-80.279999,61.350239-82.330002,58.210239z"/>
		</g>
	</g>
</g>
<g>
	<g>
		<circle class="st4" cx="-97.080002" cy="197.890244" r="1.960003"/>
	</g>
	<g>
		<circle class="st4" cx="-91.82" cy="197.890244" r="1.960003"/>
	</g>
	<g>
		<circle class="st4" cx="-86.57" cy="197.890244" r="1.960003"/>
	</g>
</g>
<g>
	<g>
		<g>
			<g>
				<g>
					<g>
						<path class="st4" d="M-91.82,128.450241c-9.489998,0-17.209999-7.849998-17.209999-17.510002
							c0-9.650002,7.720001-17.510002,17.209999-17.510002s17.209999,7.849998,17.209999,17.510002
							C-74.610001,120.59024-82.330002,128.450241-91.82,128.450241z M-91.82,95.430244
							c-8.389999,0-15.209999,6.959999-15.209999,15.510002s6.830002,15.510002,15.209999,15.510002
							s15.209999-6.959999,15.209999-15.510002S-83.43,95.430244-91.82,95.430244z"/>
					</g>
				</g>
			</g>
		</g>
	</g>
	<g>
		<g>
			<path class="st4" d="M-87.519997,102.920242h-8.610001c-4.029999,0-7.290001,3.260002-7.290001,7.290001
				c0,2.809998,1.589996,5.239998,3.919998,6.459999l4.099998,3.699997c0.529999,0.480003,1.360001,0,1.209999-0.699997
				l-0.459999-2.169998h7.129997c4.029999,0,7.290001-3.269997,7.290001-7.290001S-83.489998,102.920242-87.519997,102.920242z
				 M-85.470001,112.430244c-0.529999-1.480003-9,1.519997-12.709999,0.459999c-0.839996-0.300003-0.839996-1.610001,0-1.309998
				c0.519997,1.480003,9-1.519997,12.709999-0.459999C-84.620003,111.430244-84.629997,112.740242-85.470001,112.430244z
				 M-85.470001,108.610245c-0.529999-1.480003-9,1.519997-12.709999,0.459999c-0.839996-0.309998-0.839996-1.610001,0-1.309998
				c0.519997,1.480003,9-1.519997,12.709999-0.459999C-84.620003,107.610245-84.629997,108.920242-85.470001,108.610245z"/>
		</g>
	</g>
</g>
<g>
	<g>
		<g>
			<g>
				<g>
					<g>
						<path class="st4" d="M-91.82,175.98024c-9.489998,0-17.209999-7.850006-17.209999-17.509995
							s7.720001-17.509995,17.209999-17.509995s17.209999,7.850006,17.209999,17.509995S-82.330002,175.98024-91.82,175.98024z
							 M-91.82,142.970245c-8.389999,0-15.209999,6.960007-15.209999,15.509995s6.830002,15.509995,15.209999,15.509995
							s15.209999-6.960007,15.209999-15.509995S-83.43,142.970245-91.82,142.970245z"/>
					</g>
				</g>
			</g>
		</g>
	</g>
	<g>
		<g>
			<path class="st4" d="M-94.410004,153.960251c0.480003-0.479996,0.970001-0.970001,1.459999-1.460007
				c0,1.339996,0,2.679993,0,4.020004c0,0.320007,0,0.630005,0,0.949997c0,0.610001,0.519997,1.119995,1.120003,1.119995
				c0.610001,0,1.120003-0.509995,1.120003-1.119995c0-1.660004,0-3.309998,0-4.970001
				c0.480003,0.490005,0.970001,0.970001,1.459999,1.460007c0.419998,0.419998,1.18,0.449997,1.589996,0
				c0.410004-0.449997,0.440002-1.149994,0-1.589996c-1.129997-1.130005-2.25-2.25-3.379997-3.380005
				c-0.089996-0.089996-0.199997-0.149994-0.309998-0.199997c-0.019997-0.009995-0.029999-0.029999-0.050003-0.039993
				c-0.019997-0.009995-0.050003-0.009995-0.07-0.009995c-0.110001-0.039993-0.230003-0.070007-0.360001-0.070007
				s-0.260002,0.029999-0.379997,0.080002c-0.019997,0.009995-0.040001,0-0.050003,0.009995
				c-0.040001,0.020004-0.059998,0.039993-0.099998,0.059998c-0.089996,0.050003-0.190002,0.100006-0.269997,0.179993
				c-1.129997,1.119995-2.25,2.25-3.379997,3.380005c-0.419998,0.419998-0.449997,1.179993,0,1.589996
				C-95.550003,154.380249-94.849998,154.410248-94.410004,153.960251z"/>
		</g>
		<g>
			<path class="st4" d="M-86.110001,156.790237c0,2.160004,0,4.320007,0,6.479996c-3.620003,0-7.239998,0-10.860001,0
				c-0.190002,0-0.379997,0-0.57,0c0-2.160004,0-4.320007,0-6.479996c0-1.449997-2.25-1.449997-2.25,0
				c0,2.529999,0,5.070007,0,7.600006c0,0.610001,0.519997,1.119995,1.120003,1.119995c4,0,7.989998,0,11.989998,0
				c0.57,0,1.129997,0,1.699997,0c0.610001,0,1.120003-0.520004,1.120003-1.119995c0-2.529999,0-5.070007,0-7.600006
				C-83.860001,155.34024-86.110001,155.34024-86.110001,156.790237z"/>
		</g>
	</g>
</g>
<g>
	<path class="st6" d="M2.996676,7.899436l6.230163,9.951741c0.395885,0.632366,0.395885,1.43528,0,2.067646l-6.230163,9.95174
		c-1.012456,1.617247,0.662535,3.575195,2.41704,2.825356l28.12343-12.019386c1.576832-0.673906,1.576832-2.909159,0-3.583065
		L5.413717,5.07408C3.659212,4.32424,1.98422,6.282191,2.996676,7.899436z"/>
</g>
</svg>
