<?xml version="1.0" encoding="utf-8"?>
<!-- Generator: Adobe Illustrator 26.0.3, SVG Export Plug-In . SVG Version: 6.00 Build 0)  -->
<svg version="1.1" id="레이어_1" xmlns="http://www.w3.org/2000/svg" xmlns:xlink="http://www.w3.org/1999/xlink" x="0px"
	 y="0px" viewBox="0 0 119.143059 119.143059" style="enable-background:new 0 0 119.143059 119.143059;" xml:space="preserve">
<style type="text/css">
	.st0{display:none;fill:#FFFFFF;}
	.st1{display:none;}
	.st2{display:inline;fill:#60B630;}
	.st3{fill:#60B630;}
	.st4{fill:#FFFFFF;}
</style>
<rect width="119.143059" height="119.143059"/>
<rect x="-81.79702" y="39.118767" width="37.400002" height="37.400002"/>
<rect x="-81.79702" y="39.118767" class="st0" width="37.400002" height="37.400002"/>
<g class="st1">
	<path class="st2" d="M-62.297016,54.818764c0-3.699997,3.200001-6.599998,7-6.199997
		c3.099998,0.399998,5.399998,3.199997,5.399998,6.399998v0.600002l0,0h2.800003l0,0v-0.5
		c0-4.900002-3.600002-9.100002-8.5-9.400002c-5.299999-0.299999-9.599998,3.900002-9.599998,9.100002v0.899998h2.899998V54.818764
		L-62.297016,54.818764z"/>
	<path class="st2" d="M-62.597015,58.718765h-2.400002h-10.199997h-2.400002l0,0c-0.900002,0-1.599998,0.600002-1.599998,1.400002
		v8.799995c0,0.800003,0.699997,1.400002,1.599998,1.400002h15c0.899998,0,1.599998-0.599998,1.599998-1.400002v-8.799995
		C-60.997017,59.318768-61.797016,58.718765-62.597015,58.718765L-62.597015,58.718765z"/>
</g>
<g>
	<path class="st3" d="M-71.749313,45.535217v13.641026h4.634598v3.816692c0,3.665184,2.551338,6.732391,5.974331,7.528229
		l-1.357552,0.202942h3.114395h0.588444h0.425468l0.016422-0.013412c4.064049-0.229156,7.28928-3.596352,7.28928-7.717758v-3.816692
		h0.014812V45.535217H-71.749313z M-63.812778,55.735641h-3.126331v-6.759823h3.126331V55.735641z M-55.931896,63.893894
		c0,1.758183-1.419479,3.183491-3.170475,3.183491s-3.170441-1.425308-3.170441-3.183491v-4.717651h6.340916V63.893894z
		 M-55.859318,55.735641h-3.126331v-6.759823h3.126331V55.735641z"/>
	<path class="st4" d="M-75.14492,45.535217v13.641026h4.634605v3.816692c0,4.269806,3.461365,7.731171,7.731167,7.731171h0.588448
		c4.269806,0,7.731171-3.461365,7.731171-7.731171v-3.816692h0.014809V45.535217H-75.14492z M-67.208382,55.735641h-3.126335
		v-6.759823h3.126335V55.735641z M-59.327499,63.893894c0,1.758183-1.419479,3.183491-3.170479,3.183491
		c-1.750992,0-3.170441-1.425308-3.170441-3.183491v-4.717651h6.340919V63.893894z M-59.254921,55.735641h-3.126335v-6.759823
		h3.126335V55.735641z"/>
</g>
<g>
	<g>
		<path class="st3" d="M33.485828,23.805304c-0.522373-0.31859-1.230537-1.106401-1.434158-1.885216
			c-0.221279,0.823137-0.814302,1.637608-1.54896,2.08017l-0.610855-0.708164
			c1.000261-0.646179,1.655272-1.832561,1.655272-3.514492V18.60055h0.991428v1.168386
			c0,1.5313,0.575527,2.726347,1.531467,3.301876L33.485828,23.805304z M34.255978,25.363264v-3.965717h-1.062244v-0.840799
			h1.062244v-2.567051h0.964767v7.373568H34.255978z M35.813938,25.726177v-7.887112h0.982597v7.887112H35.813938z"/>
		<path class="st3" d="M41.565895,22.088047c-0.610855-0.229944-1.425159-0.867458-1.770412-1.593285
			c-0.238941,0.805473-1.088737,1.540298-1.823563,1.796904l-0.628513-0.823137
			c1.150723-0.407234,1.912041-1.345676,1.912041-2.531727v-0.743488h1.062244v0.681503
			c0,1.221708,0.911781,2.106829,1.841228,2.407757L41.565895,22.088047z M41.070179,25.726177
			c-1.699593,0-2.691021-0.628517-2.691021-1.593285c0-0.99143,0.991428-1.602283,2.691021-1.602283
			c1.717255,0,2.708687,0.610853,2.708687,1.602283C43.778866,25.09766,42.787434,25.726177,41.070179,25.726177z
			 M39.441402,24.132893c0,0.469219,0.601856,0.761484,1.628777,0.761484c1.044582,0,1.65527-0.292265,1.65527-0.761484
			c0-0.477886-0.610687-0.778814-1.65527-0.778814C40.043259,23.354078,39.441402,23.655006,39.441402,24.132893z
			 M43.690384,20.565413v1.885548h-1.044582v-4.611895h1.044582v1.876551h1.124233v0.849796H43.690384z"/>
		<path class="st3" d="M47.592285,23.938272c-0.876125,0.035324-1.814568,0.070648-2.478409,0.061985l-0.150463-0.885456
			c0.911949,0,1.6731-0.008663,2.566887-0.043989c0.982765-0.035658,1.938869-0.106308,2.638035-0.194952l0.088646,0.832132
			C49.504494,23.805304,48.433414,23.89395,47.592285,23.938272z M47.459648,18.343611
			c1.336681,0,2.186478,0.787811,2.186478,1.894547c0,1.097404-0.849796,1.894213-2.186478,1.894213
			c-1.327682,0-2.195305-0.796808-2.195305-1.894213C45.264343,19.131422,46.131966,18.343611,47.459648,18.343611z
			 M47.459648,21.264912c0.717163,0,1.141727-0.451559,1.141727-1.035751c0-0.557533-0.424564-1.009092-1.141727-1.009092
			c-0.708164,0-1.13306,0.451559-1.13306,1.009092C46.326588,20.813353,46.751484,21.264912,47.459648,21.264912z
			 M51.61132,25.726177h-1.027084v-7.887112h1.027084V25.726177z"/>
		<path class="st3" d="M30.086643,34.289795v-0.823139h3.027439v-1.672932h-2.168812v-3.779762h5.41737v3.779762H34.14967v1.672932
			h3.062767v0.823139H30.086643z M35.327053,28.8281h-3.355028v2.142155h3.355028V28.8281z"/>
		<path class="st3" d="M37.520531,32.174301v-0.832136h7.125793v0.832136H37.520531z M38.423481,35.042278v-2.319111h1.035583
			v1.495975h4.36412v0.823135H38.423481z M38.467636,30.625338V27.74836h5.284733v0.823135h-4.248981v1.23937h4.310966v0.814472
			H38.467636z"/>
		<path class="st3" d="M47.512302,28.146597h2.124161c1.425323,0,2.142151,0.663841,2.142151,1.867887
			c0,1.265696-0.805138,1.929537-2.071171,1.929537h-1.1064v2.275122h-1.088741V28.146597z M49.503826,31.129883
			c0.823135,0,1.133064-0.345251,1.133064-1.053413c0-0.79681-0.309929-1.089073-1.115402-1.089073h-0.920444v2.142487H49.503826z"
			/>
		<path class="st3" d="M52.565426,28.146597h1.991856c1.858891,0,2.903305,0.894119,2.903305,2.876978v0.176958
			c0,1.947535-0.947105,3.01861-2.894638,3.01861h-2.000523V28.146597z M54.574947,33.360348
			c1.186047,0,1.734917-0.58419,1.734917-2.053507v-0.292263c0-1.531301-0.663841-2.009186-1.814568-2.009186h-0.841129v4.354956
			H54.574947z"/>
		<path class="st3" d="M58.362373,28.146597h3.72644v0.858795h-2.637703v1.814566h2.053509v0.840797h-2.053509v2.558388h-1.088737
			V28.146597z"/>
	</g>
	<g>
		<g>
			<path class="st3" d="M38.206005,39.103882v33.684425H49.65044v9.424736c0,9.050621,6.300129,16.624611,14.752697,18.589806
				l-3.352268,0.501144h7.690517h1.453079h1.050629l0.04055-0.033119c10.035545-0.565865,17.999763-8.880653,17.999763-19.057831
				v-9.424736h0.036575V39.103882H38.206005z M57.804066,64.292267h-7.720005V47.599922h7.720005V64.292267z M77.264702,84.437828
				c0,4.341568-3.505188,7.861145-7.82901,7.861145c-4.323814,0-7.828915-3.519577-7.828915-7.861145V72.788307h15.657925V84.437828
				z M77.443924,64.292267h-7.720009V47.599922h7.720009V64.292267z"/>
		</g>
		<g>
			<path class="st4" d="M29.821077,39.103882v33.684425h11.444437v9.424736c0,10.54364,8.54731,19.09095,19.090946,19.09095
				h1.453079c10.543633,0,19.090942-8.54731,19.090942-19.09095v-9.424736h0.036575V39.103882H29.821077z M49.41914,64.292267
				h-7.720005V47.599922h7.720005V64.292267z M68.879776,84.437828c0,4.341568-3.505188,7.861145-7.82901,7.861145
				s-7.828918-3.519577-7.828918-7.861145V72.788307h15.657928V84.437828z M69.058998,64.292267h-7.720005V47.599922h7.720005
				V64.292267z"/>
		</g>
	</g>
</g>
</svg>
