<?xml version="1.0" encoding="utf-8"?>
<!-- Generator: Adobe Illustrator 26.0.3, SVG Export Plug-In . SVG Version: 6.00 Build 0)  -->
<svg version="1.1" baseProfile="basic" id="레이어_1"
	 xmlns="http://www.w3.org/2000/svg" xmlns:xlink="http://www.w3.org/1999/xlink" x="0px" y="0px"
	 viewBox="0 0 37.400002 37.400002" xml:space="preserve">
<style type="text/css">
	.st0{display:none;fill:#FFFFFF;}
	.st1{display:none;}
	.st2{display:inline;fill:#60B630;}
	.st3{fill:#60B630;}
	.st4{fill:none;}
	.st5{fill:#CBE244;}
</style>
<rect y="0" width="37.400002" height="37.400002"/>
<rect class="st0" width="37.400002" height="37.400002"/>
<g class="st1">
	<path class="st2" d="M19.5,15.7c0-3.7,3.200001-6.599999,7-6.2c3.1,0.4,5.4,3.2,5.4,6.4v0.6l0,0h2.800001l0,0V16
		c0-4.9-3.6-9.1-8.5-9.4c-5.299999-0.3-9.6,3.9-9.6,9.1v0.9h2.9V15.7L19.5,15.7z"/>
	<path class="st2" d="M19.200001,19.6h-2.4H6.6H4.2l0,0c-0.9,0-1.6,0.6-1.6,1.4v8.799999c0,0.799999,0.7,1.4,1.6,1.4h15.000001
		c0.9,0,1.6-0.6,1.6-1.4V21C20.799999,20.200001,20,19.6,19.200001,19.6L19.200001,19.6z"/>
</g>
<g>
	<g>
		<g>
			<g>
				<path class="st3" d="M3.948427,11.814453h14.001871v3.818358H8.157981v1.214051h9.178002v3.661718H8.157981v1.233675h9.792317
					v3.818359H3.948427V11.814453z"/>
				<g>
					<path class="st3" d="M25.234346,25.585548h-1.415201v-2.222906h1.40645c0.132803,0,0.250965,0.007933,0.354488,0.0238
						s0.208036,0.0476,0.313541,0.095261c0.10545,0.047659,0.193342,0.111128,0.263678,0.190521
						c0.070337,0.079393,0.127464,0.186882,0.171438,0.322348c0.043919,0.135523,0.065878,0.295324,0.065878,0.479523
						c0,0.165112-0.02339,0.313341-0.07028,0.444571c-0.046892,0.131289-0.108421,0.237703-0.184593,0.319126
						c-0.07617,0.081541-0.166042,0.149303-0.269566,0.203285c-0.103579,0.053984-0.207598,0.091562-0.312056,0.112738
						C25.453609,25.574991,25.345684,25.585548,25.234346,25.585548z M25.187456,24.979031
						c0.10743,0,0.199286-0.022728,0.275455-0.0683c0.07617-0.045511,0.131866-0.105282,0.166979-0.179426
						c0.03517-0.074085,0.05278-0.158787,0.05278-0.254047c0-0.152405-0.03957-0.274687-0.118658-0.366787
						c-0.079142-0.092098-0.204679-0.138149-0.376556-0.138149h-0.685587v1.00671H25.187456z"/>
					<path class="st3" d="M26.651741,23.353098h2.206291v0.679588h-1.523567v0.215933h1.192526v0.654179h-1.192526v0.682751
						h-0.682724V23.353098z"/>
				</g>
			</g>
			<g>
				<path class="st4" d="M27.868876,18.726723c1.10804,0,1.662151-0.495987,1.662151-1.488201
					c0-0.221838-0.027086-0.411222-0.081306-0.567865c-0.054222-0.156641-0.135483-0.283932-0.243925-0.381821
					c-0.108347-0.097946-0.216789-0.179308-0.325138-0.244797c-0.108442-0.065142-0.237972-0.107674-0.388451-0.127298
					c-0.150761-0.019561-0.274151-0.035789-0.370409-0.048912c-0.096539-0.012882-0.204933-0.019625-0.325186-0.019625h-4.498653
					v2.878519H27.868876z"/>
				<path class="st3" d="M33.207649,15.19224c-0.162567-0.567865-0.36755-1.03105-0.614239-1.390262
					c-0.247017-0.358909-0.551113-0.668853-0.91243-0.930114c-0.361364-0.260968-0.701733-0.460199-1.020731-0.597274
					c-0.319328-0.137017-0.674694-0.241401-1.066004-0.313284c-0.391497-0.071578-0.695547-0.11411-0.912336-0.127291
					c-0.216837-0.012825-0.445765-0.019561-0.68655-0.019561h-4.697401v4.033749h4.498653
					c0.120253,0,0.228647,0.006742,0.325186,0.019625c0.096258,0.013124,0.219648,0.029351,0.370409,0.048912
					c0.150478,0.019625,0.280008,0.062157,0.388451,0.127298c0.108349,0.065489,0.216791,0.146851,0.325138,0.244797
					c0.108442,0.097889,0.189703,0.22518,0.243925,0.381821c0.05422,0.156643,0.081306,0.346027,0.081306,0.567865
					c0,0.992214-0.554111,1.488201-1.662151,1.488201h-4.570917v-2.878519H19.08831v9.71241h4.209648v-2.780573h4.841928
					c0.216837,0,0.45167-0.016222,0.704592-0.048971c0.25297-0.032393,0.556973-0.097887,0.912384-0.19577
					c0.355131-0.097946,0.695547-0.228283,1.020779-0.391663c0.325232-0.16308,0.65637-0.391598,0.993692-0.685314
					c0.337088-0.293716,0.626143-0.633064,0.867208-1.018282c0.240829-0.384855,0.43644-0.864624,0.587151-1.439224
					c0.150478-0.574253,0.225883-1.210657,0.225883-1.909153C33.451576,16.393461,33.370266,15.760105,33.207649,15.19224z"/>
				<polygon points="19.08831,15.848204 19.08831,15.848204 19.08831,15.848178 				"/>
				<polygon class="st5" points="23.297958,11.814455 19.08831,15.848178 19.08831,15.848204 23.297958,15.848204 				"/>
			</g>
		</g>
	</g>
</g>
</svg>
