<?xml version="1.0" encoding="utf-8"?>
<!-- Generator: Adobe Illustrator 26.0.3, SVG Export Plug-In . SVG Version: 6.00 Build 0)  -->
<svg version="1.1" id="레이어_1" xmlns="http://www.w3.org/2000/svg" xmlns:xlink="http://www.w3.org/1999/xlink" x="0px"
	 y="0px" viewBox="0 0 37.4 37.8" style="enable-background:new 0 0 37.4 37.8;" xml:space="preserve">
<style type="text/css">
	.st0{display:none;fill:#FFFFFF;}
	.st1{fill:#FFFFFF;stroke:#9E9E9E;stroke-width:7.880000e-02;stroke-miterlimit:10;}
	.st2{display:none;}
	.st3{display:inline;fill:#60B630;}
	.st4{fill:#60B630;}
	.st5{fill:none;}
</style>
<g>
	<g>
		<g>
			<g>
				<path class="st4" d="M19.8,35.9c-0.6,0.5-1.5,0.5-2.1,0L5.2,26.4c-5.2-4-6.5-11.9-2.8-17.5C4.2,6.1,7,4.2,10.1,3.7
					c2.7-0.5,5.4,0.1,7.7,1.5c0.5,0.3,1.2,0.3,1.7,0c2.3-1.4,5-1.9,7.7-1.5c3.2,0.5,6,2.4,7.8,5.2l0,0c3.7,5.6,2.4,13.5-2.8,17.5
					L19.8,35.9z M12,6.8c-0.4,0-0.9,0-1.3,0.1c-2.3,0.4-4.2,1.7-5.6,3.8C2.4,15,3.3,20.8,7.2,23.8l10.4,8c0.6,0.5,1.5,0.5,2.1,0
					l10.4-8c3.9-3,4.8-8.9,2.1-13.1l0,0c-1.3-2.1-3.3-3.4-5.6-3.8c-2.2-0.4-4.3,0.2-6.1,1.6L19.8,9c-0.6,0.5-1.5,0.5-2.1,0l-0.8-0.6
					C15.4,7.4,13.7,6.8,12,6.8z"/>
			</g>
		</g>
	</g>
</g>
</svg>
